<mxfile host="Electron" agent="Mozilla/5.0 (Macintosh; Intel Mac OS X 10_15_7) AppleWebKit/537.36 (KHTML, like Gecko) draw.io/25.0.2 Chrome/128.0.6613.186 Electron/32.2.5 Safari/537.36" version="25.0.2">
  <diagram name="Page-1" id="vQwCS0VuyH1_z9JokuWV">
    <mxGraphModel dx="646" dy="424" grid="1" gridSize="10" guides="1" tooltips="1" connect="1" arrows="1" fold="1" page="1" pageScale="1" pageWidth="1169" pageHeight="827" math="0" shadow="0">
      <root>
        <mxCell id="0" />
        <mxCell id="1" parent="0" />
        <mxCell id="h_gjy8d-nbvcVHeryfm6-1" value="nakar-client-web" style="rounded=0;whiteSpace=wrap;html=1;" vertex="1" parent="1">
          <mxGeometry x="160" y="360" width="210" height="40" as="geometry" />
        </mxCell>
        <mxCell id="h_gjy8d-nbvcVHeryfm6-2" value="" style="rounded=0;whiteSpace=wrap;html=1;" vertex="1" parent="1">
          <mxGeometry x="160" y="400" width="210" height="150" as="geometry" />
        </mxCell>
        <mxCell id="h_gjy8d-nbvcVHeryfm6-3" value="" style="ellipse;whiteSpace=wrap;html=1;" vertex="1" parent="1">
          <mxGeometry x="300" y="430" width="30" height="30" as="geometry" />
        </mxCell>
        <mxCell id="h_gjy8d-nbvcVHeryfm6-4" value="" style="ellipse;whiteSpace=wrap;html=1;" vertex="1" parent="1">
          <mxGeometry x="260" y="500" width="30" height="30" as="geometry" />
        </mxCell>
        <mxCell id="h_gjy8d-nbvcVHeryfm6-5" value="" style="ellipse;whiteSpace=wrap;html=1;" vertex="1" parent="1">
          <mxGeometry x="210" y="450" width="30" height="30" as="geometry" />
        </mxCell>
        <mxCell id="h_gjy8d-nbvcVHeryfm6-6" value="" style="endArrow=none;html=1;rounded=0;" edge="1" parent="1" source="h_gjy8d-nbvcVHeryfm6-4" target="h_gjy8d-nbvcVHeryfm6-5">
          <mxGeometry width="50" height="50" relative="1" as="geometry">
            <mxPoint x="450" y="600" as="sourcePoint" />
            <mxPoint x="500" y="550" as="targetPoint" />
          </mxGeometry>
        </mxCell>
        <mxCell id="h_gjy8d-nbvcVHeryfm6-7" value="" style="endArrow=none;html=1;rounded=0;" edge="1" parent="1" source="h_gjy8d-nbvcVHeryfm6-3" target="h_gjy8d-nbvcVHeryfm6-4">
          <mxGeometry width="50" height="50" relative="1" as="geometry">
            <mxPoint x="274" y="514" as="sourcePoint" />
            <mxPoint x="246" y="486" as="targetPoint" />
          </mxGeometry>
        </mxCell>
        <mxCell id="h_gjy8d-nbvcVHeryfm6-8" value="nakar-client-vision" style="rounded=0;whiteSpace=wrap;html=1;" vertex="1" parent="1">
          <mxGeometry x="410" y="360" width="210" height="40" as="geometry" />
        </mxCell>
        <mxCell id="h_gjy8d-nbvcVHeryfm6-9" value="" style="rounded=0;whiteSpace=wrap;html=1;" vertex="1" parent="1">
          <mxGeometry x="410" y="400" width="210" height="150" as="geometry" />
        </mxCell>
        <mxCell id="h_gjy8d-nbvcVHeryfm6-10" value="" style="ellipse;whiteSpace=wrap;html=1;" vertex="1" parent="1">
          <mxGeometry x="545" y="430" width="30" height="30" as="geometry" />
        </mxCell>
        <mxCell id="h_gjy8d-nbvcVHeryfm6-11" value="" style="ellipse;whiteSpace=wrap;html=1;" vertex="1" parent="1">
          <mxGeometry x="505" y="500" width="30" height="30" as="geometry" />
        </mxCell>
        <mxCell id="h_gjy8d-nbvcVHeryfm6-12" value="" style="ellipse;whiteSpace=wrap;html=1;" vertex="1" parent="1">
          <mxGeometry x="455" y="450" width="30" height="30" as="geometry" />
        </mxCell>
        <mxCell id="h_gjy8d-nbvcVHeryfm6-13" value="" style="endArrow=none;html=1;rounded=0;" edge="1" parent="1" source="h_gjy8d-nbvcVHeryfm6-11" target="h_gjy8d-nbvcVHeryfm6-12">
          <mxGeometry width="50" height="50" relative="1" as="geometry">
            <mxPoint x="695" y="600" as="sourcePoint" />
            <mxPoint x="745" y="550" as="targetPoint" />
          </mxGeometry>
        </mxCell>
        <mxCell id="h_gjy8d-nbvcVHeryfm6-14" value="" style="endArrow=none;html=1;rounded=0;" edge="1" parent="1" source="h_gjy8d-nbvcVHeryfm6-10" target="h_gjy8d-nbvcVHeryfm6-11">
          <mxGeometry width="50" height="50" relative="1" as="geometry">
            <mxPoint x="519" y="514" as="sourcePoint" />
            <mxPoint x="491" y="486" as="targetPoint" />
          </mxGeometry>
        </mxCell>
        <mxCell id="h_gjy8d-nbvcVHeryfm6-15" value="nakar-server" style="rounded=0;whiteSpace=wrap;html=1;" vertex="1" parent="1">
          <mxGeometry x="160" y="280" width="460" height="40" as="geometry" />
        </mxCell>
        <mxCell id="h_gjy8d-nbvcVHeryfm6-16" value="nakar-db-pole" style="rounded=0;whiteSpace=wrap;html=1;" vertex="1" parent="1">
          <mxGeometry x="160" y="200" width="160" height="40" as="geometry" />
        </mxCell>
        <mxCell id="h_gjy8d-nbvcVHeryfm6-17" value="nakar-db-wikidata" style="rounded=0;whiteSpace=wrap;html=1;" vertex="1" parent="1">
          <mxGeometry x="325" y="200" width="160" height="40" as="geometry" />
        </mxCell>
        <mxCell id="h_gjy8d-nbvcVHeryfm6-18" value="nakar-db-xx" style="rounded=0;whiteSpace=wrap;html=1;" vertex="1" parent="1">
          <mxGeometry x="490" y="200" width="130" height="40" as="geometry" />
        </mxCell>
        <mxCell id="h_gjy8d-nbvcVHeryfm6-19" value="" style="endArrow=classic;startArrow=classic;html=1;rounded=0;exitX=0.174;exitY=0;exitDx=0;exitDy=0;exitPerimeter=0;" edge="1" parent="1" source="h_gjy8d-nbvcVHeryfm6-15">
          <mxGeometry width="50" height="50" relative="1" as="geometry">
            <mxPoint x="560" y="440" as="sourcePoint" />
            <mxPoint x="240" y="240" as="targetPoint" />
          </mxGeometry>
        </mxCell>
        <mxCell id="h_gjy8d-nbvcVHeryfm6-20" value="" style="endArrow=classic;startArrow=classic;html=1;rounded=0;entryX=0.469;entryY=1;entryDx=0;entryDy=0;entryPerimeter=0;exitX=0.522;exitY=0;exitDx=0;exitDy=0;exitPerimeter=0;" edge="1" parent="1" source="h_gjy8d-nbvcVHeryfm6-15" target="h_gjy8d-nbvcVHeryfm6-17">
          <mxGeometry width="50" height="50" relative="1" as="geometry">
            <mxPoint x="400" y="268" as="sourcePoint" />
            <mxPoint x="400" y="248" as="targetPoint" />
          </mxGeometry>
        </mxCell>
        <mxCell id="h_gjy8d-nbvcVHeryfm6-21" value="" style="endArrow=classic;startArrow=classic;html=1;rounded=0;entryX=0;entryY=0;entryDx=0;entryDy=0;exitX=0;exitY=1;exitDx=0;exitDy=0;" edge="1" parent="1" source="h_gjy8d-nbvcVHeryfm6-26" target="h_gjy8d-nbvcVHeryfm6-26">
          <mxGeometry width="50" height="50" relative="1" as="geometry">
            <mxPoint x="410" y="290" as="sourcePoint" />
            <mxPoint x="410" y="250" as="targetPoint" />
          </mxGeometry>
        </mxCell>
        <mxCell id="h_gjy8d-nbvcVHeryfm6-22" value="" style="endArrow=classic;startArrow=classic;html=1;rounded=0;entryX=0.772;entryY=1;entryDx=0;entryDy=0;exitX=0.5;exitY=0;exitDx=0;exitDy=0;entryPerimeter=0;" edge="1" parent="1" source="h_gjy8d-nbvcVHeryfm6-8" target="h_gjy8d-nbvcVHeryfm6-15">
          <mxGeometry width="50" height="50" relative="1" as="geometry">
            <mxPoint x="519.84" y="360" as="sourcePoint" />
            <mxPoint x="519.84" y="320" as="targetPoint" />
          </mxGeometry>
        </mxCell>
        <mxCell id="h_gjy8d-nbvcVHeryfm6-23" value="" style="endArrow=classic;startArrow=classic;html=1;rounded=0;entryX=0.228;entryY=1;entryDx=0;entryDy=0;exitX=0.5;exitY=0;exitDx=0;exitDy=0;entryPerimeter=0;" edge="1" parent="1" source="h_gjy8d-nbvcVHeryfm6-1" target="h_gjy8d-nbvcVHeryfm6-15">
          <mxGeometry width="50" height="50" relative="1" as="geometry">
            <mxPoint x="274.84" y="360" as="sourcePoint" />
            <mxPoint x="274.84" y="320" as="targetPoint" />
          </mxGeometry>
        </mxCell>
        <mxCell id="h_gjy8d-nbvcVHeryfm6-24" value="HTTP" style="text;html=1;align=left;verticalAlign=middle;whiteSpace=wrap;rounded=0;" vertex="1" parent="1">
          <mxGeometry x="265" y="320" width="105" height="40" as="geometry" />
        </mxCell>
        <mxCell id="h_gjy8d-nbvcVHeryfm6-25" value="HTTP" style="text;html=1;align=left;verticalAlign=middle;whiteSpace=wrap;rounded=0;" vertex="1" parent="1">
          <mxGeometry x="515" y="320" width="105" height="40" as="geometry" />
        </mxCell>
        <mxCell id="h_gjy8d-nbvcVHeryfm6-26" value="Cypher" style="text;html=1;align=left;verticalAlign=middle;whiteSpace=wrap;rounded=0;" vertex="1" parent="1">
          <mxGeometry x="560" y="240" width="105" height="40" as="geometry" />
        </mxCell>
        <mxCell id="h_gjy8d-nbvcVHeryfm6-27" value="Cypher" style="text;html=1;align=left;verticalAlign=middle;whiteSpace=wrap;rounded=0;" vertex="1" parent="1">
          <mxGeometry x="400" y="240" width="105" height="40" as="geometry" />
        </mxCell>
        <mxCell id="h_gjy8d-nbvcVHeryfm6-28" value="Cypher" style="text;html=1;align=left;verticalAlign=middle;whiteSpace=wrap;rounded=0;" vertex="1" parent="1">
          <mxGeometry x="240" y="240" width="105" height="40" as="geometry" />
        </mxCell>
      </root>
    </mxGraphModel>
  </diagram>
</mxfile>
